<?xml version="1.0" encoding="utf-8"?>
<!-- Generator: Adobe Illustrator 28.3.0, SVG Export Plug-In . SVG Version: 6.00 Build 0)  -->
<svg version="1.1"
	 id="Icon" xmlns:svg="http://www.w3.org/2000/svg" xmlns:sodipodi="http://sodipodi.sourceforge.net/DTD/sodipodi-0.dtd" xmlns:inkscape="http://www.inkscape.org/namespaces/inkscape"
	 xmlns="http://www.w3.org/2000/svg" xmlns:xlink="http://www.w3.org/1999/xlink" x="0px" y="0px" viewBox="0 0 128 128"
	 style="enable-background:new 0 0 128 128;" xml:space="preserve">
<style type="text/css">
	.st0{fill:#4F9D69;}
	.st1{fill:#FFFFFF;}
</style>
<sodipodi:namedview  bordercolor="#000000" borderopacity="0.25" id="namedview1" inkscape:current-layer="Icon" inkscape:cx="46.177226" inkscape:cy="112.43838" inkscape:deskcolor="#d1d1d1" inkscape:pagecheckerboard="0" inkscape:pageopacity="0.0" inkscape:showpageshadow="2" inkscape:window-height="991" inkscape:window-maximized="1" inkscape:window-width="1920" inkscape:window-x="-9" inkscape:window-y="-9" inkscape:zoom="3.1617317" pagecolor="#ffffff">
	</sodipodi:namedview>
<path id="bg" class="st0" d="M123.6,14.6c3,0,4.9,2.5,4.2,5.5l-19.5,85.2c-0.7,3.1-3.7,5.5-6.8,5.5H4.4c-3,0-4.9-2.5-4.2-5.5
	l19.5-85.2c0.7-3.1,3.7-5.5,6.8-5.5C26.4,14.6,123.6,14.6,123.6,14.6z"/>
<path id="joystick" class="st1" d="M88.5,74.4c-1.5,0-2.8,1-3.1,2.5c-0.4,1.7,0.7,3.3,2.4,3.7s3.3-0.7,3.7-2.4
	c0.4-1.7-0.7-3.3-2.4-3.7C89,74.4,88.8,74.4,88.5,74.4z M86.4,81l-1.9,8.7h2.7l1.7-8.1c-0.4,0-0.9,0-1.3-0.1
	C87.2,81.4,86.8,81.3,86.4,81z M82.4,90.8l-0.6,1.7h7.6l-0.6-1.7H82.4z M75.3,93.5v1.7H77v-1.7H75.3z M80.6,93.5L80,95.2h11.3
	l-0.6-1.7H80.6z M94.3,93.5v1.7H96v-1.7H94.3z M74.4,96.2v3.5h22.5v-3.5H74.4z"/>
<path id="arrow" class="st1" d="M79,64.4c1.3-2.1,1.2-4.8-0.5-6.6L48.7,26.1c-2-2.2-5.5-2.2-7.8,0c-2.3,2.1-2.5,5.6-0.5,7.8
	l24.9,26.4v0.6L25.6,89.5c-2.4,1.7-2.8,5.2-1,7.7c1.8,2.5,5.3,3.2,7.7,1.4l43.9-31.5C77.7,66.2,78.6,65.3,79,64.4z"/>
</svg>
