<?xml version="1.0" encoding="utf-8"?>
<!-- Generator: Adobe Illustrator 28.3.0, SVG Export Plug-In . SVG Version: 6.00 Build 0)  -->
<svg version="1.1"
	 id="Layer_1" xmlns:sodipodi="http://sodipodi.sourceforge.net/DTD/sodipodi-0.dtd" xmlns:inkscape="http://www.inkscape.org/namespaces/inkscape" xmlns:svg="http://www.w3.org/2000/svg" inkscape:version="1.3.2 (091e20e, 2023-11-25, custom)" sodipodi:docname="SteamPS-icon.svg"
	 xmlns="http://www.w3.org/2000/svg" xmlns:xlink="http://www.w3.org/1999/xlink" x="0px" y="0px" viewBox="0 0 800 800"
	 style="enable-background:new 0 0 800 800;" xml:space="preserve">
<style type="text/css">
	.st0{fill:#0B132B;}
	.st1{fill:#FFFFFF;}
</style>
<g>
	<path id="pwsh" sodipodi:nodetypes="sccssccsscccccccccccc" class="st0" d="M772.7,102.6c18.9,0,30.8,15.4,26.4,34.5l-122,532.7
		c-4.3,19.1-23.2,34.5-42.2,34.5H27.3c-18.9,0-30.8-15.4-26.4-34.5l122-532.7c4.3-19.1,23.2-34.5,42.2-34.5L772.7,102.6z
		 M493.5,414.1c8.4-13.1,7.6-30.2-3-41.4L304.1,174.3c-12.7-13.5-34.6-13.6-48.9-0.1c-14.3,13.4-15.6,35.2-2.9,48.7l155.4,165.3v3.7
		l-247.4,179c-15,10.9-17.8,32.6-6.2,48.4c11.5,15.9,33,19.9,48,9l274.3-197C485.7,424.8,491,419.2,493.5,414.1L493.5,414.1z"/>
	<path id="joystick" class="st1" d="M564.2,465c-9.7-0.1-18.4,6.6-20.5,16.5c-2.4,11.3,4.7,22.3,16,24.7c11.3,2.4,22.3-4.7,24.7-16
		c2.4-11.3-4.7-22.3-16-24.7C567,465.2,565.6,465,564.2,465L564.2,465z M550,509.6l-12.5,58.1h17.8l11.7-54.5
		c-2.9,0.3-5.8,0.2-8.8-0.4C555.2,512.2,552.5,511.1,550,509.6L550,509.6z M522.8,574.6L519,586h51.1l-3.8-11.4H522.8z M475.3,592.8
		v11.4h11.4v-11.4H475.3z M510.7,592.8l-3.8,11.4h75.4l-3.8-11.4H510.7z M602.6,592.8v11.4h11.4v-11.4H602.6z M469.2,611v23.5H620
		V611H469.2z"/>
</g>
</svg>
